name rise44.8762peak52.3436fall86.788.mot
datacolumns 19
datarows 17
range 14.05994600000000 14.08660900000000
endheader
time	ground_force1_vx	ground_force1_vy	ground_force1_vz	ground_force1_px	ground_force1_py	ground_force1_pz	ground_force2_vx	ground_force2_vy	ground_force2_vz	ground_force2_px	ground_force2_py	ground_force2_pz	ground_torque1_x	ground_torque1_y	ground_torque1_z	ground_torque2_x	ground_torque2_y	ground_torque2_z	
14.05994600000000	-50.59698500000000	818.15592400000003	61.12480400000000	0.06323400000000	0.00000000000000	0.11148000000000	-5.55958800000000	20.35546600000000	3.85285800000000	0.00000000000000	0.00000000000000	0.00000000000000	0.00000000000000	17.97604600000000	0.00000000000000	0.00000000000000	0.95920600000000	0.00000000000000	
14.06160800000000	-50.78822900000000	816.17011000000002	60.95337600000000	0.06270600000000	0.00000000000000	0.11140700000000	-6.73119700000000	25.91435100000000	4.75472000000000	0.29507600000000	0.00000000000000	-0.07031600000000	0.00000000000000	17.88741100000000	0.00000000000000	0.00000000000000	2.12880900000000	0.00000000000000	
14.06328100000000	-50.98835800000000	814.05408899999998	60.75725100000000	0.06218100000000	0.00000000000000	0.11133000000000	-7.87459400000000	31.81742600000000	5.66771000000000	0.30036600000000	0.00000000000000	-0.07079200000000	0.00000000000000	17.79995000000000	0.00000000000000	0.00000000000000	2.59194600000000	0.00000000000000	
14.06494200000000	-51.19815200000000	811.80739000000005	60.53609800000000	0.06166000000000	0.00000000000000	0.11125000000000	-8.94685800000000	37.94465900000000	6.56418000000000	0.30511000000000	0.00000000000000	-0.07123800000000	0.00000000000000	17.71387400000000	0.00000000000000	0.00000000000000	3.06181300000000	0.00000000000000	
14.06660700000000	-51.41834000000000	809.42959199999996	60.28962500000000	0.06114300000000	0.00000000000000	0.11116500000000	-9.90917900000000	44.17937500000000	7.41841100000000	0.30938900000000	0.00000000000000	-0.07165900000000	0.00000000000000	17.62939000000000	0.00000000000000	0.00000000000000	3.52606700000000	0.00000000000000	
14.06827900000000	-51.64959500000000	806.92032200000006	60.01758100000000	0.06062900000000	0.00000000000000	0.11107600000000	-10.72940100000000	50.41703800000000	8.20834200000000	0.31326800000000	0.00000000000000	-0.07205800000000	0.00000000000000	17.54669000000000	0.00000000000000	0.00000000000000	3.97363300000000	0.00000000000000	
14.06994000000000	-51.89253200000000	804.27925100000004	59.71975700000000	0.06011700000000	0.00000000000000	0.11098400000000	-11.38373800000000	56.57198700000000	8.91680400000000	0.31680300000000	0.00000000000000	-0.07243800000000	0.00000000000000	17.46595700000000	0.00000000000000	0.00000000000000	4.39537800000000	0.00000000000000	
14.07161200000000	-52.14770100000000	801.50608899999997	59.39598500000000	0.05960900000000	0.00000000000000	0.11088700000000	-11.85756900000000	62.58166500000000	9.53218400000000	0.32003700000000	0.00000000000000	-0.07280300000000	0.00000000000000	17.38736000000000	0.00000000000000	0.00000000000000	4.78453000000000	0.00000000000000	
14.07327500000000	-52.41558800000000	798.60058200000003	59.04614200000000	0.05910300000000	0.00000000000000	0.11078500000000	-12.14537500000000	68.40829600000001	10.04853000000000	0.32300800000000	0.00000000000000	-0.07315300000000	0.00000000000000	17.31105600000000	0.00000000000000	0.00000000000000	5.13684500000000	0.00000000000000	
14.07494300000000	-52.69660500000000	795.56250799999998	58.67014600000000	0.05860000000000	0.00000000000000	0.11068000000000	-12.24993500000000	74.03824299999999	10.46517800000000	0.32574800000000	0.00000000000000	-0.07349100000000	0.00000000000000	17.23718700000000	0.00000000000000	0.00000000000000	5.45053100000000	0.00000000000000	
14.07660800000000	-52.99109100000000	792.39167599999996	58.26795700000000	0.05809800000000	0.00000000000000	0.11057000000000	-12.18097800000000	79.47948800000000	10.78600500000000	0.32828200000000	0.00000000000000	-0.07381700000000	0.00000000000000	17.16588100000000	0.00000000000000	0.00000000000000	5.72598600000000	0.00000000000000	
14.07827400000000	-53.29930800000000	789.08791900000006	57.83958000000000	0.05759900000000	0.00000000000000	0.11045500000000	-11.95349800000000	84.75776999999999	11.01843500000000	0.33063300000000	0.00000000000000	-0.07413500000000	0.00000000000000	17.09724700000000	0.00000000000000	0.00000000000000	5.96539900000000	0.00000000000000	
14.07994200000000	-53.62143500000000	785.65109500000005	57.38506300000000	0.05710100000000	0.00000000000000	0.11033600000000	-11.58592400000000	89.91192599999999	11.17233300000000	0.33282000000000	0.00000000000000	-0.07444300000000	0.00000000000000	17.03138100000000	0.00000000000000	0.00000000000000	6.17226900000000	0.00000000000000	
14.08161300000000	-53.95756800000000	782.08108400000003	56.90449700000000	0.05660600000000	0.00000000000000	0.11021200000000	-11.09832400000000	94.98896900000000	11.25887800000000	0.33486000000000	0.00000000000000	-0.07474400000000	0.00000000000000	16.96835900000000	0.00000000000000	0.00000000000000	6.35090800000000	0.00000000000000	
14.08327600000000	-54.30771900000000	778.37778700000001	56.39801600000000	0.05611100000000	0.00000000000000	0.11008300000000	-10.51078600000000	100.03934500000000	11.28953900000000	0.33676700000000	0.00000000000000	-0.07503800000000	0.00000000000000	16.90824000000000	0.00000000000000	0.00000000000000	6.50595500000000	0.00000000000000	
14.08494300000000	-54.67180700000000	774.54112399999997	55.86579900000000	0.05561800000000	0.00000000000000	0.10995000000000	-9.84206600000000	105.11271200000000	11.27518700000000	0.33855200000000	0.00000000000000	-0.07532600000000	0.00000000000000	16.85106400000000	0.00000000000000	0.00000000000000	6.64195100000000	0.00000000000000	
14.08660900000000	-55.04966300000000	770.57103400000005	55.30806700000000	0.05512600000000	0.00000000000000	0.10981200000000	-9.10857800000000	110.25449500000001	11.22541400000000	0.34022700000000	0.00000000000000	-0.07560700000000	0.00000000000000	16.79685200000000	0.00000000000000	0.00000000000000	6.76300000000000	0.00000000000000	
